<svg xmlns="http://www.w3.org/2000/svg" xmlns:xlink="http://www.w3.org/1999/xlink" width="500" zoomAndPan="magnify" viewBox="0 0 375 374.999991" height="500" preserveAspectRatio="xMidYMid meet" version="1.0"><defs><g/><clipPath id="a567ab71dd"><path d="M 148 110.804688 L 205 110.804688 L 205 170 L 148 170 Z M 148 110.804688 " clip-rule="nonzero"/></clipPath><clipPath id="8a5af5592c"><path d="M 167 110.804688 L 244.121094 110.804688 L 244.121094 193.304688 L 167 193.304688 Z M 167 110.804688 " clip-rule="nonzero"/></clipPath></defs><g clip-path="url(#a567ab71dd)"><path fill="#450cb6" d="M 173.113281 142.238281 L 204.546875 110.804688 L 186.042969 110.804688 L 153.109375 143.734375 C 147.386719 149.460938 147.539062 156.664062 153.109375 162.238281 L 160.703125 169.832031 C 154.652344 157.054688 165.363281 149.984375 173.113281 142.238281 Z M 173.113281 142.238281 " fill-opacity="1" fill-rule="nonzero"/></g><g clip-path="url(#8a5af5592c)"><path fill="#450cb6" d="M 242.976562 193.597656 L 202.148438 152.769531 L 244.117188 110.804688 L 225.613281 110.804688 L 172.898438 163.519531 C 165.296875 171.117188 165.808594 174.929688 172.898438 182.023438 L 184.472656 193.597656 L 202.972656 193.597656 L 182.148438 172.773438 L 192.894531 162.023438 L 224.46875 193.597656 Z M 242.976562 193.597656 " fill-opacity="1" fill-rule="nonzero"/></g><g fill="#450cb6" fill-opacity="1"><g transform="translate(118.292341, 237.996313)"><g><path d="M 11.828125 -9.625 L 8.546875 -6.1875 L 8.546875 0 L 2.90625 0 L 2.90625 -24.5 L 8.546875 -24.5 L 8.546875 -13.0625 L 19.390625 -24.5 L 25.6875 -24.5 L 15.546875 -13.578125 L 26.28125 0 L 19.671875 0 Z M 11.828125 -9.625 "/></g></g></g><g fill="#450cb6" fill-opacity="1"><g transform="translate(147.686446, 237.996313)"><g><path d="M 19.046875 -5.25 L 7.671875 -5.25 L 5.5 0 L -0.3125 0 L 10.609375 -24.5 L 16.203125 -24.5 L 27.15625 0 L 21.203125 0 Z M 17.25 -9.5625 L 13.375 -18.9375 L 9.484375 -9.5625 Z M 17.25 -9.5625 "/></g></g></g><g fill="#450cb6" fill-opacity="1"><g transform="translate(177.990344, 237.996313)"><g><path d="M 18.515625 0 L 13.796875 -6.828125 L 8.578125 -6.828125 L 8.578125 0 L 2.90625 0 L 2.90625 -24.5 L 13.515625 -24.5 C 15.679688 -24.5 17.5625 -24.132812 19.15625 -23.40625 C 20.757812 -22.6875 21.992188 -21.660156 22.859375 -20.328125 C 23.722656 -19.003906 24.15625 -17.429688 24.15625 -15.609375 C 24.15625 -13.785156 23.71875 -12.210938 22.84375 -10.890625 C 21.96875 -9.578125 20.722656 -8.570312 19.109375 -7.875 L 24.609375 0 Z M 18.40625 -15.609375 C 18.40625 -16.984375 17.960938 -18.035156 17.078125 -18.765625 C 16.191406 -19.503906 14.894531 -19.875 13.1875 -19.875 L 8.578125 -19.875 L 8.578125 -11.34375 L 13.1875 -11.34375 C 14.894531 -11.34375 16.191406 -11.710938 17.078125 -12.453125 C 17.960938 -13.203125 18.40625 -14.253906 18.40625 -15.609375 Z M 18.40625 -15.609375 "/></g></g></g><g fill="#450cb6" fill-opacity="1"><g transform="translate(207.209484, 237.996313)"><g><path d="M 7.984375 -19.875 L 0.140625 -19.875 L 0.140625 -24.5 L 21.484375 -24.5 L 21.484375 -19.875 L 13.65625 -19.875 L 13.65625 0 L 7.984375 0 Z M 7.984375 -19.875 "/></g></g></g><g fill="#450cb6" fill-opacity="1"><g transform="translate(232.334551, 237.996313)"><g><path d="M 2.90625 -24.5 L 8.578125 -24.5 L 8.578125 0 L 2.90625 0 Z M 2.90625 -24.5 "/></g></g></g><g fill="#450cb6" fill-opacity="1"><g transform="translate(247.311902, 237.996313)"><g><path d="M 11.828125 -9.625 L 8.546875 -6.1875 L 8.546875 0 L 2.90625 0 L 2.90625 -24.5 L 8.546875 -24.5 L 8.546875 -13.0625 L 19.390625 -24.5 L 25.6875 -24.5 L 15.546875 -13.578125 L 26.28125 0 L 19.671875 0 Z M 11.828125 -9.625 "/></g></g></g></svg>